<svg width="14" height="16" viewBox="0 0 14 16" fill="none" xmlns="http://www.w3.org/2000/svg">
<path d="M7.823 13.5L13 8.19995M9.66701 4L4.058 9.71997C3.808 9.96997 3.66701 10.3099 3.66701 10.6699C3.66701 11.0199 3.808 11.3601 4.058 11.6101C4.308 11.8601 4.647 12 5 12C5.354 12 5.69299 11.8601 5.94299 11.6101L11.552 5.88989C12.052 5.38989 12.333 4.71 12.333 4C12.333 3.29 12.052 2.61011 11.552 2.11011C11.052 1.61011 10.374 1.33008 9.66701 1.33008C8.96001 1.33008 8.282 1.61011 7.782 2.11011L2.172 7.84009C1.421 8.59009 1 9.60992 1 10.6699C1 11.7299 1.421 12.75 2.172 13.5C2.922 14.25 3.939 14.6699 5 14.6699C6.061 14.6699 7.07899 14.25 7.82899 13.5" stroke="#E5E7EB" stroke-linecap="round" stroke-linejoin="round"/>
</svg>
