<svg width="18" height="22" viewBox="0 0 18 22" fill="none" xmlns="http://www.w3.org/2000/svg">
<path d="M7 17L10 14L7 11M11 1V5C11 5.53 11.211 6.039 11.586 6.414C11.961 6.789 12.47 7 13 7H17" stroke="#3B82F6" stroke-width="2" stroke-linecap="round" stroke-linejoin="round"/>
<path d="M1 10V3C1 2.47 1.211 1.961 1.586 1.586C1.961 1.211 2.47 1 3 1H12L17 6V19C17 19.53 16.789 20.039 16.414 20.414C16.039 20.789 15.53 21 15 21H3C2.47 21 1.961 20.789 1.586 20.414C1.211 20.039 1 19.53 1 19V16C1 15.47 1.211 14.961 1.586 14.586C1.961 14.211 2.47 14 3 14H10" stroke="#3B82F6" stroke-width="2" stroke-linecap="round" stroke-linejoin="round"/>
</svg>
