<svg width="24" height="29" viewBox="0 0 24 29" fill="none" xmlns="http://www.w3.org/2000/svg">
<path d="M22.666 15.833C22.666 22.5 18 25.833 12.453 27.767C12.163 27.865 11.847 27.86 11.56 27.753C6 25.833 1.33301 22.5 1.33301 15.833V6.5C1.33301 6.146 1.473 5.80701 1.724 5.55701C1.974 5.30701 2.31302 5.16699 2.66602 5.16699C5.33302 5.16699 8.66602 3.56698 10.986 1.53998C11.269 1.29898 11.628 1.16602 12 1.16602C12.371 1.16602 12.731 1.29898 13.013 1.53998C15.346 3.57998 18.666 5.16699 21.333 5.16699C21.687 5.16699 22.026 5.30701 22.276 5.55701C22.526 5.80701 22.666 6.146 22.666 6.5V15.833Z" stroke="#3BB979" stroke-width="1.5" stroke-linecap="round" stroke-linejoin="round"/>
<path d="M8 14.5L10.667 17.167L16 11.833" stroke="#3BB979" stroke-width="1.5" stroke-linecap="round" stroke-linejoin="round"/>
</svg>
