<svg width="23" height="23" viewBox="0 0 23 23" fill="none" xmlns="http://www.w3.org/2000/svg">
<path d="M1.58997 17.414C1.20997 17.789 1 18.298 1 18.828V21C1 21.265 1.11004 21.52 1.29004 21.707C1.48004 21.895 1.73 22 2 22H5C5.27 22 5.51996 21.895 5.70996 21.707C5.88996 21.52 6 21.265 6 21V20C6 19.735 6.11004 19.481 6.29004 19.293C6.48004 19.106 6.73 19 7 19H8C8.27 19 8.51996 18.895 8.70996 18.707C8.88996 18.52 9 18.265 9 18V17C9 16.735 9.11004 16.481 9.29004 16.293C9.48004 16.106 9.73 16 10 16H10.17C10.7 16 11.21 15.789 11.59 15.414L12.4 14.6C13.79 15.084 15.2999 15.082 16.6899 14.595C18.0799 14.107 19.26 13.163 20.04 11.916C20.83 10.67 21.16 9.19398 21 7.73198C20.83 6.26898 20.18 4.90598 19.13 3.86598C18.09 2.82498 16.73 2.16798 15.27 2.00298C13.81 1.83798 12.33 2.17398 11.08 2.95598C9.83996 3.73798 8.89003 4.91999 8.41003 6.30899C7.92003 7.69699 7.92002 9.20999 8.40002 10.6L1.58997 17.414Z" stroke="#3B82F6" stroke-width="2" stroke-linecap="round" stroke-linejoin="round"/>
</svg>
