<svg width="22" height="20" viewBox="0 0 22 20" fill="none" xmlns="http://www.w3.org/2000/svg">
<path d="M17 19C17 16.878 16.157 14.843 14.657 13.343C13.157 11.843 11.122 11 9 11C6.878 11 4.84299 11.843 3.34299 13.343C1.84299 14.843 1 16.878 1 19" stroke="#3B82F6" stroke-width="2" stroke-linecap="round" stroke-linejoin="round"/>
<path d="M9 11C11.761 11 14 8.761 14 6C14 3.239 11.761 1 9 1C6.239 1 4 3.239 4 6C4 8.761 6.239 11 9 11Z" stroke="#3B82F6" stroke-width="2" stroke-linecap="round" stroke-linejoin="round"/>
<path d="M21 18C21 14.63 19 11.5 17 10C17.657 9.50702 18.183 8.85901 18.531 8.11401C18.878 7.37001 19.037 6.55101 18.992 5.73001C18.948 4.90901 18.701 4.11201 18.275 3.40901C17.85 2.70701 17.257 2.11901 16.55 1.70001" stroke="#3B82F6" stroke-width="2" stroke-linecap="round" stroke-linejoin="round"/>
</svg>
