<svg width="29" height="29" viewBox="0 0 29 29" fill="none" xmlns="http://www.w3.org/2000/svg">
<path d="M4 20.9999C2 22.6799 1.33301 27.6698 1.33301 27.6698C1.33301 27.6698 6.32 26.9999 8 24.9999C8.946 23.8799 8.933 22.16 7.88 21.12C7.361 20.63 6.67901 20.34 5.96301 20.32C5.24701 20.3 4.548 20.5399 4 20.9999ZM14 18.9999L10 14.9999C10.709 13.1599 11.603 11.3899 12.666 9.72989C14.22 7.24989 16.383 5.19995 18.95 3.78995C21.518 2.37995 24.403 1.64983 27.333 1.66983C27.333 5.28983 26.293 11.67 19.333 16.33C17.649 17.4 15.862 18.2899 14 18.9999Z" stroke="#3BB979" stroke-width="2" stroke-linecap="round" stroke-linejoin="round"/>
<path d="M10 15.0001H3.33301C3.33301 15.0001 4.066 10.96 6 9.67003C8.16 8.23003 12.666 9.67003 12.666 9.67003M14 19.0001V25.67C14 25.67 18.04 24.9301 19.333 23.0001C20.773 20.8401 19.333 16.3302 19.333 16.3302" stroke="#3BB979" stroke-width="2" stroke-linecap="round" stroke-linejoin="round"/>
</svg>
