<svg width="30" height="29" viewBox="0 0 30 29" fill="none" xmlns="http://www.w3.org/2000/svg">
<path d="M14.999 12.419V17.5M14.999 1.5V5.5M24.333 16.167V8.16699C24.333 7.45899 24.052 6.78101 23.552 6.28101C23.052 5.78101 22.373 5.5 21.666 5.5H8.33301C7.62501 5.5 6.94702 5.78101 6.44702 6.28101C5.94702 6.78101 5.66602 7.45899 5.66602 8.16699V16.167" stroke="#3B82F6" stroke-width="1.5" stroke-linecap="round" stroke-linejoin="round"/>
<path d="M24.839 25.5C26.273 23.08 27.02 20.314 26.999 17.5L16.082 12.648C15.741 12.497 15.372 12.418 14.999 12.418C14.626 12.418 14.257 12.497 13.916 12.648L2.99902 17.5C2.93702 21.292 4.27103 24.974 6.74603 27.847" stroke="#3B82F6" stroke-width="1.5" stroke-linecap="round" stroke-linejoin="round"/>
<path d="M1.66602 26.833C2.46602 27.5 3.26601 28.167 4.99901 28.167C8.33301 28.167 8.33302 25.5 11.666 25.5C13.399 25.5 14.199 26.167 14.999 26.833C15.799 27.5 16.599 28.167 18.333 28.167C21.666 28.167 21.666 25.5 24.999 25.5C26.733 25.5 27.533 26.167 28.333 26.833" stroke="#3B82F6" stroke-width="1.5" stroke-linecap="round" stroke-linejoin="round"/>
</svg>
