<svg xmlns="http://www.w3.org/2000/svg">
  <symbol id="building" viewBox="0 0 22 22">
    <path d="M5 21V3C5 2.47 5.211 1.961 5.586 1.586C5.961 1.211 6.47 1 7 1H15C15.53 1 16.039 1.211 16.414 1.586C16.789 1.961 17 2.47 17 3V21M5 21H17M5 21H3C2.47 21 1.961 20.789 1.586 20.414C1.211 20.039 1 19.53 1 19V13C1 12.47 1.211 11.961 1.586 11.586C1.961 11.211 2.47 11 3 11H5M17 21H19C19.53 21 20.039 20.789 20.414 20.414C20.789 20.039 21 19.53 21 19V10C21 9.47 20.789 8.961 20.414 8.586C20.039 8.211 19.53 8 19 8H17M9 5H13M9 9H13M9 13H13M9 17H13" stroke-width="2" stroke-linecap="round" stroke-linejoin="round"/>
  </symbol>
  <symbol id="database" viewBox="0 0 20 22">
    <path d="M10 7C14.971 7 19 5.657 19 4C19 2.343 14.971 1 10 1C5.029 1 1 2.343 1 4C1 5.657 5.029 7 10 7Z" stroke-width="2" stroke-linecap="round" stroke-linejoin="round"/>
    <path d="M1 4V18C1 18.796 1.94799 19.559 3.63599 20.121C5.32399 20.684 7.613 21 10 21C12.387 21 14.676 20.684 16.364 20.121C18.052 19.559 19 18.796 19 18V4" stroke-width="2" stroke-linecap="round" stroke-linejoin="round"/>
    <path d="M1 11C1 11.796 1.94799 12.559 3.63599 13.121C5.32399 13.684 7.613 14 10 14C12.387 14 14.676 13.684 16.364 13.121C18.052 12.559 19 11.796 19 11" stroke-width="2" stroke-linecap="round" stroke-linejoin="round"/>
  </symbol>
  <symbol id="document" viewBox="0 0 18 22">
    <path d="M7 17L10 14L7 11M11 1V5C11 5.53 11.211 6.039 11.586 6.414C11.961 6.789 12.47 7 13 7H17" stroke-width="2" stroke-linecap="round" stroke-linejoin="round"/>
    <path d="M1 10V3C1 2.47 1.211 1.961 1.586 1.586C1.961 1.211 2.47 1 3 1H12L17 6V19C17 19.53 16.789 20.039 16.414 20.414C16.039 20.789 15.53 21 15 21H3C2.47 21 1.961 20.789 1.586 20.414C1.211 20.039 1 19.53 1 19V16C1 15.47 1.211 14.961 1.586 14.586C1.961 14.211 2.47 14 3 14H10" stroke-width="2" stroke-linecap="round" stroke-linejoin="round"/>
  </symbol>
  <svg id="house" viewBox="0 0 20 21">
    <path d="M13 20V12C13 11.735 12.895 11.48 12.707 11.293C12.52 11.105 12.265 11 12 11H8C7.735 11 7.48 11.105 7.293 11.293C7.105 11.48 7 11.735 7 12V20" stroke-width="2" stroke-linecap="round" stroke-linejoin="round"/>
    <path d="M1 9C1 8.709 1.063 8.422 1.186 8.158C1.308 7.894 1.487 7.66 1.709 7.472L8.709 1.473C9.07 1.168 9.527 1 10 1C10.473 1 10.93 1.168 11.291 1.473L18.291 7.472C18.513 7.66 18.692 7.894 18.814 8.158C18.937 8.422 19 8.709 19 9V18C19 18.53 18.789 19.039 18.414 19.414C18.039 19.789 17.53 20 17 20H3C2.47 20 1.961 19.789 1.586 19.414C1.211 19.039 1 18.53 1 18V9Z" stroke-width="2" stroke-linecap="round" stroke-linejoin="round"/>
  </svg>
  <symbol id="key" viewBox="0 0 23 23">
      <path d="M1.58997 17.414C1.20997 17.789 1 18.298 1 18.828V21C1 21.265 1.11004 21.52 1.29004 21.707C1.48004 21.895 1.73 22 2 22H5C5.27 22 5.51996 21.895 5.70996 21.707C5.88996 21.52 6 21.265 6 21V20C6 19.735 6.11004 19.481 6.29004 19.293C6.48004 19.106 6.73 19 7 19H8C8.27 19 8.51996 18.895 8.70996 18.707C8.88996 18.52 9 18.265 9 18V17C9 16.735 9.11004 16.481 9.29004 16.293C9.48004 16.106 9.73 16 10 16H10.17C10.7 16 11.21 15.789 11.59 15.414L12.4 14.6C13.79 15.084 15.2999 15.082 16.6899 14.595C18.0799 14.107 19.26 13.163 20.04 11.916C20.83 10.67 21.16 9.19398 21 7.73198C20.83 6.26898 20.18 4.90598 19.13 3.86598C18.09 2.82498 16.73 2.16798 15.27 2.00298C13.81 1.83798 12.33 2.17398 11.08 2.95598C9.83996 3.73798 8.89003 4.91999 8.41003 6.30899C7.92003 7.69699 7.92002 9.20999 8.40002 10.6L1.58997 17.414Z" stroke-width="2" stroke-linecap="round" stroke-linejoin="round"/>
  </symbol>
  <symbol id="people" viewBox="0 0 22 20">
      <path d="M17 19C17 16.878 16.157 14.843 14.657 13.343C13.157 11.843 11.122 11 9 11C6.878 11 4.84299 11.843 3.34299 13.343C1.84299 14.843 1 16.878 1 19" stroke-width="2" stroke-linecap="round" stroke-linejoin="round"/>
      <path d="M9 11C11.761 11 14 8.761 14 6C14 3.239 11.761 1 9 1C6.239 1 4 3.239 4 6C4 8.761 6.239 11 9 11Z" stroke-width="2" stroke-linecap="round" stroke-linejoin="round"/>
      <path d="M21 18C21 14.63 19 11.5 17 10C17.657 9.50702 18.183 8.85901 18.531 8.11401C18.878 7.37001 19.037 6.55101 18.992 5.73001C18.948 4.90901 18.701 4.11201 18.275 3.40901C17.85 2.70701 17.257 2.11901 16.55 1.70001" stroke-width="2" stroke-linecap="round" stroke-linejoin="round"/>
  </symbol>
  <symbol id="target" viewBox="0 0 20 22">
      <path d="M10 12V1L18 5L10 9" stroke-width="2" stroke-linecap="round" stroke-linejoin="round"/>
      <path d="M18.561 9.222C19.093 10.862 19.143 12.621 18.704 14.288C18.266 15.956 17.358 17.463 16.088 18.629C14.818 19.795 13.239 20.572 11.54 20.867C9.84098 21.162 8.094 20.963 6.505 20.293C4.916 19.623 3.553 18.511 2.578 17.089C1.602 15.667 1.05603 13.995 1.00403 12.271C0.952028 10.548 1.397 8.845 2.284 7.367C3.172 5.889 4.46499 4.69601 6.01099 3.93201" stroke-width="2" stroke-linecap="round" stroke-linejoin="round"/>
      <path d="M6.00203 8.99701C5.50103 9.66401 5.17499 10.446 5.05299 11.271C4.93099 12.097 5.01804 12.939 5.30604 13.723C5.59304 14.506 6.07201 15.205 6.69801 15.755C7.32501 16.306 8.07902 16.692 8.89302 16.876C9.70702 17.061 10.553 17.039 11.356 16.813C12.159 16.586 12.893 16.163 13.49 15.58C14.088 14.998 14.53 14.275 14.776 13.478C15.023 12.681 15.066 11.835 14.902 11.017" stroke-width="2" stroke-linecap="round" stroke-linejoin="round"/>
  </symbol>
  <symbol id="arrow-left" viewBox="0 0 22 16">
    <path d="M20.5601 7.96501H1.35999M1.35999 7.96501L8.56006 0.765015M1.35999 7.96501L8.56006 15.165" stroke-width="1.5" stroke-linecap="round" stroke-linejoin="round"/>
  </symbol>
  <symbol id="arrow-right" viewBox="0 0 22 16">
      <path d="M1.70996 7.96501H20.91M20.91 7.96501L13.71 15.165M20.91 7.96501L13.71 0.765015" stroke-width="1.5" stroke-linecap="round" stroke-linejoin="round"/>
  </symbol>
  <symbol id="three-dots" viewBox="0 0 4 12">
    <path d="M2 8.99997C2.32 8.99997 2.61998 9.12696 2.84998 9.35196C3.06998 9.57696 3.19995 9.88198 3.19995 10.2C3.19995 10.518 3.06998 10.824 2.84998 11.049C2.61998 11.274 2.32 11.4 2 11.4C1.68 11.4 1.38002 11.274 1.15002 11.049C0.930024 10.824 0.800049 10.518 0.800049 10.2C0.800049 9.88198 0.930024 9.57696 1.15002 9.35196C1.38002 9.12696 1.68 8.99997 2 8.99997ZM2 4.79996C2.32 4.79996 2.61998 4.92698 2.84998 5.15198C3.06998 5.37698 3.19995 5.68197 3.19995 5.99997C3.19995 6.31797 3.06998 6.62397 2.84998 6.84897C2.61998 7.07397 2.32 7.19998 2 7.19998C1.68 7.19998 1.38002 7.07397 1.15002 6.84897C0.930024 6.62397 0.800049 6.31797 0.800049 5.99997C0.800049 5.68197 0.930024 5.37698 1.15002 5.15198C1.38002 4.92698 1.68 4.79996 2 4.79996ZM2 0.599976C2.32 0.599976 2.61998 0.726965 2.84998 0.951965C3.06998 1.17697 3.19995 1.48196 3.19995 1.79996C3.19995 2.11796 3.06998 2.42396 2.84998 2.64896C2.61998 2.87396 2.32 2.99997 2 2.99997C1.68 2.99997 1.38002 2.87396 1.15002 2.64896C0.930024 2.42396 0.800049 2.11796 0.800049 1.79996C0.800049 1.48196 0.930024 1.17697 1.15002 0.951965C1.38002 0.726965 1.68 0.599976 2 0.599976Z" />
  </symbol>
  <symbol id="wide-arrow-top" viewBox="0 0 17 11">
    <path d="M16.3 6.90399L10.17 0.700012C9.95003 0.478012 9.69001 0.302007 9.40001 0.182007C9.11001 0.0620068 8.80999 0 8.49998 0C8.18998 0 7.87995 0.0620068 7.58995 0.182007C7.30995 0.302007 7.04994 0.478012 6.82994 0.700012L0.699936 6.90399C-0.800064 8.41299 0.26999 11 2.37999 11H14.64C16.75 11 17.79 8.41299 16.3 6.90399Z" />
  </symbol>
  <symbol id="wide-arrow-bottom" viewBox="0 0 17 11">
    <path d="M0.699946 4.09601L6.82995 10.3C7.04995 10.522 7.30997 10.698 7.59997 10.818C7.88997 10.938 8.18999 11 8.5 11C8.81 11 9.12003 10.938 9.41003 10.818C9.69003 10.698 9.95004 10.522 10.17 10.3L16.3 4.09601C17.8 2.58701 16.73 0 14.62 0H2.35998C0.24998 0 -0.790054 2.58701 0.699946 4.09601Z"/>
  </symbol>
  <symbol id="exclamation-mark" viewBox="0 0 2 10">
    <path d="M1 1V5M1 9H1.01001" stroke-width="1.5" stroke-linecap="round" stroke-linejoin="round"/>
  </symbol>
  <symbol id="ship" viewBox="0 0 30 29">
    <path d="M14.999 12.419V17.5M14.999 1.5V5.5M24.333 16.167V8.16699C24.333 7.45899 24.052 6.78101 23.552 6.28101C23.052 5.78101 22.373 5.5 21.666 5.5H8.33301C7.62501 5.5 6.94702 5.78101 6.44702 6.28101C5.94702 6.78101 5.66602 7.45899 5.66602 8.16699V16.167"  stroke-width="1.5" stroke-linecap="round" stroke-linejoin="round"/>
    <path d="M24.839 25.5C26.273 23.08 27.02 20.314 26.999 17.5L16.082 12.648C15.741 12.497 15.372 12.418 14.999 12.418C14.626 12.418 14.257 12.497 13.916 12.648L2.99902 17.5C2.93702 21.292 4.27103 24.974 6.74603 27.847" stroke-width="1.5" stroke-linecap="round" stroke-linejoin="round"/>
    <path d="M1.66602 26.833C2.46602 27.5 3.26601 28.167 4.99901 28.167C8.33301 28.167 8.33302 25.5 11.666 25.5C13.399 25.5 14.199 26.167 14.999 26.833C15.799 27.5 16.599 28.167 18.333 28.167C21.666 28.167 21.666 25.5 24.999 25.5C26.733 25.5 27.533 26.167 28.333 26.833" stroke-width="1.5" stroke-linecap="round" stroke-linejoin="round"/>
  </symbol>
  <symbol id="guard-check" viewBox="0 0 24 29">
    <path d="M22.666 15.833C22.666 22.5 18 25.833 12.453 27.767C12.163 27.865 11.847 27.86 11.56 27.753C6 25.833 1.33301 22.5 1.33301 15.833V6.5C1.33301 6.146 1.473 5.80701 1.724 5.55701C1.974 5.30701 2.31302 5.16699 2.66602 5.16699C5.33302 5.16699 8.66602 3.56698 10.986 1.53998C11.269 1.29898 11.628 1.16602 12 1.16602C12.371 1.16602 12.731 1.29898 13.013 1.53998C15.346 3.57998 18.666 5.16699 21.333 5.16699C21.687 5.16699 22.026 5.30701 22.276 5.55701C22.526 5.80701 22.666 6.146 22.666 6.5V15.833Z" stroke-width="1.5" stroke-linecap="round" stroke-linejoin="round"/>
    <path d="M8 14.5L10.667 17.167L16 11.833" stroke-width="1.5" stroke-linecap="round" stroke-linejoin="round"/>
  </symbol>
  <symbol id="guard-user" viewBox="0 0 24 29">
    <path d="M22.666 15.833C22.666 22.5 18 25.833 12.453 27.767C12.163 27.865 11.847 27.86 11.56 27.753C6 25.833 1.33301 22.5 1.33301 15.833V6.5C1.33301 6.146 1.473 5.80701 1.724 5.55701C1.974 5.30701 2.31302 5.16699 2.66602 5.16699C5.33302 5.16699 8.66602 3.56698 10.986 1.53998C11.269 1.29898 11.628 1.16602 12 1.16602C12.371 1.16602 12.731 1.29898 13.013 1.53998C15.346 3.57998 18.666 5.16699 21.333 5.16699C21.687 5.16699 22.026 5.30701 22.276 5.55701C22.526 5.80701 22.666 6.146 22.666 6.5V15.833Z" stroke="#6A3BF6" stroke-width="1.5" stroke-linecap="round" stroke-linejoin="round"/>
    <path d="M4.50098 23.713C5.06998 22.183 6.09402 20.863 7.43402 19.931C8.77502 19 10.369 18.501 12.002 18.501C13.634 18.501 15.228 19.001 16.568 19.934C17.909 20.866 18.932 22.187 19.5 23.717" stroke-width="1.5" stroke-linecap="round" stroke-linejoin="round"/>
    <path d="M11.999 18.5C14.945 18.5 17.333 16.112 17.333 13.167C17.333 10.221 14.945 7.83301 11.999 7.83301C9.05402 7.83301 6.66602 10.221 6.66602 13.167C6.66602 16.112 9.05402 18.5 11.999 18.5Z" stroke-width="1.5" stroke-linecap="round" stroke-linejoin="round"/>
  </symbol>
  <symbol id="umbrella" width="22" height="23" viewBox="0 0 22 23">
    <path d="M11 11.5V19.5C11 20.03 11.21 20.539 11.59 20.914C11.96 21.289 12.47 21.5 13 21.5C13.53 21.5 14.04 21.289 14.41 20.914C14.79 20.539 15 20.03 15 19.5M11 1.5V2.5M21 11.5C20.73 9.037 19.56 6.76002 17.71 5.10602C15.87 3.45202 13.48 2.53699 11 2.53699C8.52 2.53699 6.13004 3.45202 4.29004 5.10602C2.44004 6.76002 1.27 9.037 1 11.5H21Z" stroke-width="2" stroke-linecap="round" stroke-linejoin="round"/>
  </symbol>
  <symbol id="check" viewBox="0 0 12 10">
    <path d="M1 5L4.33299 8.32996L11 1.67004" stroke-width="2" stroke-linecap="round" stroke-linejoin="round"/>
  </symbol>
</svg>