<svg width="20" height="22" viewBox="0 0 20 22" fill="none" xmlns="http://www.w3.org/2000/svg">
<path d="M10 12V1L18 5L10 9" stroke="#3B82F6" stroke-width="2" stroke-linecap="round" stroke-linejoin="round"/>
<path d="M18.561 9.222C19.093 10.862 19.143 12.621 18.704 14.288C18.266 15.956 17.358 17.463 16.088 18.629C14.818 19.795 13.239 20.572 11.54 20.867C9.84098 21.162 8.094 20.963 6.505 20.293C4.916 19.623 3.553 18.511 2.578 17.089C1.602 15.667 1.05603 13.995 1.00403 12.271C0.952028 10.548 1.397 8.845 2.284 7.367C3.172 5.889 4.46499 4.69601 6.01099 3.93201" stroke="#3B82F6" stroke-width="2" stroke-linecap="round" stroke-linejoin="round"/>
<path d="M6.00203 8.99701C5.50103 9.66401 5.17499 10.446 5.05299 11.271C4.93099 12.097 5.01804 12.939 5.30604 13.723C5.59304 14.506 6.07201 15.205 6.69801 15.755C7.32501 16.306 8.07902 16.692 8.89302 16.876C9.70702 17.061 10.553 17.039 11.356 16.813C12.159 16.586 12.893 16.163 13.49 15.58C14.088 14.998 14.53 14.275 14.776 13.478C15.023 12.681 15.066 11.835 14.902 11.017" stroke="#3B82F6" stroke-width="2" stroke-linecap="round" stroke-linejoin="round"/>
</svg>
