<svg width="4" height="12" viewBox="0 0 4 12" fill="none" xmlns="http://www.w3.org/2000/svg">
<path d="M2 8.99997C2.32 8.99997 2.61998 9.12696 2.84998 9.35196C3.06998 9.57696 3.19995 9.88198 3.19995 10.2C3.19995 10.518 3.06998 10.824 2.84998 11.049C2.61998 11.274 2.32 11.4 2 11.4C1.68 11.4 1.38002 11.274 1.15002 11.049C0.930024 10.824 0.800049 10.518 0.800049 10.2C0.800049 9.88198 0.930024 9.57696 1.15002 9.35196C1.38002 9.12696 1.68 8.99997 2 8.99997ZM2 4.79996C2.32 4.79996 2.61998 4.92698 2.84998 5.15198C3.06998 5.37698 3.19995 5.68197 3.19995 5.99997C3.19995 6.31797 3.06998 6.62397 2.84998 6.84897C2.61998 7.07397 2.32 7.19998 2 7.19998C1.68 7.19998 1.38002 7.07397 1.15002 6.84897C0.930024 6.62397 0.800049 6.31797 0.800049 5.99997C0.800049 5.68197 0.930024 5.37698 1.15002 5.15198C1.38002 4.92698 1.68 4.79996 2 4.79996ZM2 0.599976C2.32 0.599976 2.61998 0.726965 2.84998 0.951965C3.06998 1.17697 3.19995 1.48196 3.19995 1.79996C3.19995 2.11796 3.06998 2.42396 2.84998 2.64896C2.61998 2.87396 2.32 2.99997 2 2.99997C1.68 2.99997 1.38002 2.87396 1.15002 2.64896C0.930024 2.42396 0.800049 2.11796 0.800049 1.79996C0.800049 1.48196 0.930024 1.17697 1.15002 0.951965C1.38002 0.726965 1.68 0.599976 2 0.599976Z" fill="#E5E7EB"/>
</svg>
